<svg width="163" height="48" viewBox="0 0 163 48" fill="none" xmlns="http://www.w3.org/2000/svg">
<g clip-path="url(#clip0_1_14)">
<path d="M142.951 0.000153739H13.0171C12.5434 0.000153739 12.0755 0.000153739 11.6031 0.00251895C11.2077 0.00488416 10.8154 0.0117551 10.4162 0.017538C9.54893 0.0268827 8.68368 0.0967445 7.82799 0.226516C6.97351 0.359113 6.14579 0.609096 5.37283 0.968009C4.60082 1.32996 3.89541 1.80028 3.28219 2.3619C2.66576 2.92194 2.15191 3.56927 1.76041 4.27901C1.36784 4.98733 1.09562 5.74636 0.953169 6.52988C0.809365 7.31242 0.731982 8.10398 0.721716 8.89746C0.70973 9.26005 0.708464 9.62384 0.702148 9.98647V37.3215C0.708464 37.6887 0.70973 38.0444 0.721716 38.4118C0.731985 39.2052 0.809368 39.9967 0.953169 40.7792C1.09523 41.5632 1.36746 42.3227 1.76041 43.0312C2.15174 43.7387 2.66565 44.3834 3.28219 44.9403C3.89308 45.5044 4.59895 45.9751 5.37283 46.3343C6.14578 46.6941 6.97341 46.9456 7.82799 47.0802C8.68382 47.209 9.54898 47.2789 10.4162 47.2893C10.8154 47.2974 11.2077 47.302 11.6031 47.302C12.0755 47.3044 12.5435 47.3043 13.0171 47.3043H142.951C143.416 47.3043 143.887 47.3044 144.351 47.302C144.745 47.302 145.149 47.2974 145.542 47.2893C146.408 47.2794 147.271 47.2095 148.125 47.0802C148.983 46.9447 149.813 46.6933 150.59 46.3343C151.363 45.9749 152.068 45.5042 152.679 44.9403C153.294 44.3812 153.809 43.737 154.205 43.0312C154.595 42.3221 154.865 41.5627 155.004 40.7792C155.149 39.9966 155.229 39.2053 155.244 38.4118C155.249 38.0444 155.249 37.6887 155.249 37.3215C155.259 36.8919 155.259 36.4646 155.259 36.028V11.2776C155.259 10.8445 155.259 10.4149 155.249 9.98647C155.249 9.62384 155.249 9.26005 155.244 8.89741C155.229 8.10386 155.149 7.31248 155.004 6.52984C154.864 5.74676 154.594 4.98779 154.205 4.27896C153.408 2.85638 152.143 1.6984 150.59 0.967903C149.813 0.609866 148.983 0.35995 148.125 0.22641C147.271 0.0960663 146.408 0.0261802 145.542 0.0173725C145.149 0.0116014 144.745 0.00467129 144.351 0.00236521C143.887 0 143.416 0 142.951 0V0.000153739Z" fill="#A6A6A6"/>
<path d="M142.951 0.000153739H13.0171C12.5434 0.000153739 12.0755 0.000153739 11.6031 0.00251895C11.2077 0.00488416 10.8154 0.0117551 10.4162 0.017538C9.54893 0.0268827 8.68368 0.0967445 7.82799 0.226516C6.97351 0.359113 6.14579 0.609096 5.37283 0.968009C4.60082 1.32996 3.89541 1.80028 3.28219 2.3619C2.66576 2.92194 2.15191 3.56927 1.76041 4.27901C1.36784 4.98733 1.09562 5.74636 0.953169 6.52988C0.809365 7.31242 0.731982 8.10398 0.721716 8.89746C0.70973 9.26005 0.708464 9.62384 0.702148 9.98647V37.3215C0.708464 37.6887 0.70973 38.0444 0.721716 38.4118C0.731985 39.2052 0.809368 39.9967 0.953169 40.7792C1.09523 41.5632 1.36746 42.3227 1.76041 43.0312C2.15174 43.7387 2.66565 44.3834 3.28219 44.9403C3.89308 45.5044 4.59895 45.9751 5.37283 46.3343C6.14578 46.6941 6.97341 46.9456 7.82799 47.0802C8.68382 47.209 9.54898 47.2789 10.4162 47.2893C10.8154 47.2974 11.2077 47.302 11.6031 47.302C12.0755 47.3044 12.5435 47.3043 13.0171 47.3043H142.951C143.416 47.3043 143.887 47.3044 144.351 47.302C144.745 47.302 145.149 47.2974 145.542 47.2893C146.408 47.2794 147.271 47.2095 148.125 47.0802C148.983 46.9447 149.813 46.6933 150.59 46.3343C151.363 45.9749 152.068 45.5042 152.679 44.9403C153.294 44.3812 153.809 43.737 154.205 43.0312C154.595 42.3221 154.865 41.5627 155.004 40.7792C155.149 39.9966 155.229 39.2053 155.244 38.4118C155.249 38.0444 155.249 37.6887 155.249 37.3215C155.259 36.8919 155.259 36.4646 155.259 36.028V11.2776C155.259 10.8445 155.259 10.4149 155.249 9.98647C155.249 9.62384 155.249 9.26005 155.244 8.89741C155.229 8.10386 155.149 7.31248 155.004 6.52984C154.864 5.74676 154.594 4.98779 154.205 4.27896C153.408 2.85638 152.143 1.6984 150.59 0.967903C149.813 0.609866 148.983 0.35995 148.125 0.22641C147.271 0.0960663 146.408 0.0261802 145.542 0.0173725C145.149 0.0116014 144.745 0.00467129 144.351 0.00236521C143.887 0 143.416 0 142.951 0V0.000153739Z" fill="black"/>
<path d="M9.01129 47.9975C8.58283 47.9975 8.16471 47.9926 7.73961 47.9841C6.85898 47.9738 5.98041 47.9054 5.1111 47.7794C4.30052 47.6548 3.51528 47.4231 2.78128 47.0919C2.05402 46.7634 1.3907 46.3327 0.816727 45.8162C0.234448 45.3058 -0.250326 44.7139 -0.618384 44.0638C-0.990498 43.4095 -1.24802 42.7082 -1.38199 41.9843C-1.52666 41.2065 -1.60493 40.4199 -1.61613 39.6315C-1.62505 39.3669 -1.63672 38.4857 -1.63672 38.4857V9.49828C-1.63672 9.49828 -1.62429 8.63068 -1.61606 8.37578C-1.60534 7.5886 -1.52752 6.80329 -1.38328 6.02664C-1.24907 5.30074 -0.991345 4.5974 -0.619031 3.94098C-0.252326 3.29137 0.229757 2.69898 0.808528 2.18678C1.38665 1.66971 2.05209 1.23677 2.78059 0.903746C3.5129 0.573578 4.29666 0.34349 5.1056 0.22119C5.97777 0.0939071 6.85939 0.0250918 7.74307 0.0153216L9.01198 0H153.532L154.816 0.0159364C155.692 0.0252212 156.565 0.0934226 157.43 0.21996C158.247 0.343794 159.039 0.575487 159.779 0.907422C161.239 1.57857 162.426 2.64038 163.175 3.94404C163.542 4.59594 163.796 5.29354 163.928 6.01316C164.074 6.79618 164.156 7.58767 164.172 8.3813C164.177 8.73667 164.177 9.11839 164.177 9.49828C164.188 9.96885 164.188 10.4167 164.188 10.8683V37.1304C164.188 37.5862 164.188 38.0311 164.177 38.4796C164.177 38.8876 164.177 39.2614 164.171 39.6462C164.155 40.4257 164.074 41.203 163.931 41.972C163.799 42.7012 163.543 43.4079 163.171 44.0676C162.801 44.7106 162.319 45.2974 161.743 45.8064C161.169 46.3257 160.504 46.7589 159.775 47.0895C159.037 47.4233 158.246 47.6558 157.43 47.7794C156.56 47.9061 155.682 47.9745 154.801 47.9841C154.389 47.9926 153.958 47.9975 153.539 47.9975L152.015 48L9.01129 47.9975Z" fill="black"/>
<path d="M32.7768 23.7107C32.7909 22.6335 33.0799 21.5772 33.6169 20.6403C34.154 19.7034 34.9217 18.9162 35.8486 18.352C35.2598 17.5193 34.483 16.8341 33.5799 16.3506C32.6768 15.8672 31.6723 15.599 30.6462 15.5672C28.4573 15.3397 26.3353 16.8641 25.2199 16.8641C24.0829 16.8641 22.3656 15.5898 20.5163 15.6275C19.3201 15.6657 18.1543 16.0101 17.1326 16.6271C16.1108 17.2441 15.2678 18.1127 14.6859 19.1481C12.1649 23.4697 14.0453 29.8209 16.4602 33.3141C17.6684 35.0246 19.0804 36.9353 20.9281 36.8675C22.7361 36.7933 23.4113 35.726 25.5937 35.726C27.7559 35.726 28.3894 36.8675 30.2746 36.8245C32.2146 36.7933 33.437 35.1063 34.6028 33.3796C35.4709 32.1608 36.1389 30.8137 36.582 29.3884C35.4549 28.9163 34.493 28.1262 33.8164 27.1166C33.1397 26.1069 32.7782 24.9224 32.7768 23.7107Z" fill="white"/>
<path d="M29.2167 13.2703C30.2745 12.0129 30.7957 10.3968 30.6695 8.76521C29.0534 8.93327 27.5605 9.69804 26.4884 10.9071C25.9642 11.4978 25.5628 12.185 25.307 12.9294C25.0512 13.6738 24.946 14.4608 24.9976 15.2454C25.806 15.2536 26.6057 15.0802 27.3365 14.738C28.0673 14.3959 28.7102 13.8941 29.2167 13.2703Z" fill="white"/>
<path d="M58.1694 32.5752H52.0064L50.5264 36.9022H47.916L53.7535 20.8933H56.4656L62.303 36.9022H59.6481L58.1694 32.5752ZM52.6447 30.5785H57.5299L55.1216 23.5561H55.0543L52.6447 30.5785Z" fill="white"/>
<path d="M74.9102 31.0668C74.9102 34.6938 72.9495 37.0242 69.9908 37.0242C69.2412 37.063 68.4958 36.892 67.8399 36.5309C67.184 36.1697 66.644 35.633 66.2818 34.9821H66.2258V40.7632H63.8062V25.2303H66.1483V27.1716H66.1928C66.5716 26.5239 67.1207 25.9899 67.7817 25.6266C68.4426 25.2632 69.1907 25.0841 69.9463 25.1082C72.938 25.1082 74.9102 27.4498 74.9102 31.0668ZM72.4231 31.0668C72.4231 28.7038 71.1898 27.1502 69.308 27.1502C67.4592 27.1502 66.2157 28.7365 66.2157 31.0668C66.2157 33.4185 67.4592 34.9935 69.308 34.9935C71.1898 34.9935 72.4231 33.4513 72.4231 31.0668Z" fill="white"/>
<path d="M87.8838 31.0668C87.8838 34.6938 85.9232 37.0241 82.9644 37.0241C82.2149 37.063 81.4695 36.892 80.8135 36.5309C80.1576 36.1697 79.6176 35.633 79.2554 34.9821H79.1994V40.7632H76.7798V25.2303H79.1219V27.1716H79.1664C79.5452 26.5238 80.0943 25.9899 80.7552 25.6265C81.4162 25.2632 82.1643 25.0841 82.9198 25.1082C85.9117 25.1082 87.8838 27.4498 87.8838 31.0668ZM85.3968 31.0668C85.3968 28.7038 84.1634 27.1502 82.2816 27.1502C80.4328 27.1502 79.1893 28.7365 79.1893 31.0668C79.1893 33.4185 80.4328 34.9935 82.2816 34.9935C84.1634 34.9935 85.3968 33.4512 85.3968 31.0668H85.3968Z" fill="white"/>
<path d="M96.4593 32.4415C96.6386 34.0291 98.1962 35.0714 100.325 35.0714C102.364 35.0714 103.831 34.029 103.831 32.5976C103.831 31.355 102.947 30.611 100.851 30.1011L98.7557 29.6013C95.7867 28.8912 94.4084 27.5165 94.4084 25.2856C94.4084 22.5235 96.8395 20.6262 100.292 20.6262C103.708 20.6262 106.05 22.5235 106.129 25.2856H103.686C103.54 23.688 102.206 22.7236 100.257 22.7236C98.3081 22.7236 96.9743 23.6993 96.9743 25.1194C96.9743 26.2512 97.8262 26.9172 99.9102 27.427L101.692 27.8601C105.009 28.6369 106.387 29.9563 106.387 32.2979C106.387 35.2929 103.978 37.1688 100.145 37.1688C96.5597 37.1688 94.1388 35.337 93.9824 32.4414L96.4593 32.4415Z" fill="white"/>
<path d="M111.609 22.4679V25.23H113.851V27.1272H111.609V33.5617C111.609 34.5613 112.058 35.0271 113.043 35.0271C113.309 35.0225 113.575 35.004 113.839 34.9717V36.8576C113.396 36.9396 112.946 36.9767 112.495 36.9684C110.109 36.9684 109.178 36.0808 109.178 33.8172V27.1272H107.464V25.23H109.178V22.4679H111.609Z" fill="white"/>
<path d="M115.149 31.0674C115.149 27.3951 117.334 25.0874 120.74 25.0874C124.158 25.0874 126.332 27.395 126.332 31.0674C126.332 34.7499 124.169 37.0474 120.74 37.0474C117.312 37.0474 115.149 34.7498 115.149 31.0674ZM123.867 31.0674C123.867 28.5483 122.701 27.0615 120.74 27.0615C118.78 27.0615 117.615 28.5596 117.615 31.0674C117.615 33.5967 118.78 35.0722 120.74 35.0722C122.701 35.0722 123.867 33.5967 123.867 31.0674H123.867Z" fill="white"/>
<path d="M128.326 25.2302H130.634V27.2168H130.69C130.846 26.5964 131.213 26.048 131.73 25.664C132.246 25.28 132.88 25.0837 133.525 25.1081C133.804 25.1071 134.082 25.1371 134.354 25.1975V27.4384C134.002 27.3319 133.635 27.283 133.267 27.2936C132.916 27.2795 132.565 27.3409 132.24 27.4735C131.915 27.6061 131.622 27.8069 131.383 28.062C131.143 28.3171 130.962 28.6205 130.852 28.9514C130.742 29.2823 130.706 29.6328 130.746 29.9789V36.9019H128.326L128.326 25.2302Z" fill="white"/>
<path d="M145.51 33.4745C145.185 35.5933 143.101 37.0474 140.435 37.0474C137.005 37.0474 134.877 34.7725 134.877 31.1228C134.877 27.4618 137.017 25.0874 140.333 25.0874C143.594 25.0874 145.645 27.3057 145.645 30.8446V31.6654H137.32V31.8102C137.281 32.2398 137.335 32.6725 137.479 33.0797C137.622 33.4868 137.852 33.8591 138.152 34.1718C138.451 34.4845 138.815 34.7304 139.218 34.8932C139.622 35.0561 140.055 35.1321 140.491 35.1162C141.062 35.1692 141.636 35.0381 142.127 34.7423C142.617 34.4466 142.998 34.0019 143.213 33.4745L145.51 33.4745ZM137.331 29.991H143.224C143.246 29.6048 143.187 29.2183 143.051 28.8558C142.914 28.4933 142.704 28.1625 142.432 27.8844C142.161 27.6062 141.834 27.3866 141.473 27.2394C141.112 27.0921 140.724 27.0204 140.333 27.0287C139.939 27.0264 139.548 27.1014 139.184 27.2493C138.819 27.3972 138.488 27.6152 138.209 27.8906C137.929 28.166 137.708 28.4934 137.558 28.8539C137.407 29.2144 137.33 29.6009 137.331 29.991V29.991Z" fill="white"/>
<path d="M52.3393 8.81384C52.8469 8.77778 53.3562 8.8537 53.8305 9.03612C54.3048 9.21854 54.7323 9.50292 55.0822 9.86874C55.4321 10.2346 55.6956 10.6727 55.8537 11.1516C56.0119 11.6304 56.0607 12.1381 55.9967 12.6379C55.9967 15.0966 54.6546 16.5099 52.3393 16.5099H49.5317V8.81384H52.3393ZM50.739 15.4215H52.2045C52.5671 15.443 52.9301 15.3841 53.2669 15.2492C53.6037 15.1142 53.9058 14.9066 54.1514 14.6415C54.3969 14.3764 54.5797 14.0604 54.6863 13.7165C54.7929 13.3726 54.8208 13.0095 54.7678 12.6536C54.8169 12.2991 54.7863 11.9383 54.678 11.5969C54.5697 11.2555 54.3865 10.9421 54.1415 10.6791C53.8966 10.416 53.5958 10.2099 53.261 10.0755C52.9261 9.94103 52.5653 9.88159 52.2045 9.90142H50.739V15.4215Z" fill="white"/>
<path d="M57.3603 13.602C57.3234 13.2203 57.3675 12.8352 57.4897 12.4714C57.612 12.1076 57.8096 11.7731 58.0701 11.4893C58.3306 11.2056 58.648 10.9789 59.0022 10.8238C59.3563 10.6686 59.7393 10.5885 60.1265 10.5885C60.5137 10.5885 60.8967 10.6686 61.2508 10.8238C61.605 10.9789 61.9224 11.2056 62.1829 11.4893C62.4434 11.7731 62.641 12.1076 62.7633 12.4714C62.8855 12.8352 62.9296 13.2203 62.8927 13.602C62.9303 13.9841 62.8868 14.3697 62.7648 14.7341C62.6429 15.0985 62.4453 15.4336 62.1848 15.7179C61.9243 16.0022 61.6066 16.2294 61.2521 16.3848C60.8976 16.5403 60.5142 16.6206 60.1265 16.6206C59.7388 16.6206 59.3554 16.5403 59.0009 16.3848C58.6464 16.2294 58.3287 16.0022 58.0682 15.7179C57.8077 15.4336 57.6101 15.0985 57.4882 14.7341C57.3662 14.3697 57.3227 13.9841 57.3603 13.602ZM61.702 13.602C61.702 12.343 61.1308 11.6068 60.1284 11.6068C59.1222 11.6068 58.5561 12.343 58.5561 13.602C58.5561 14.871 59.1222 15.6016 60.1284 15.6016C61.1309 15.6016 61.702 14.866 61.702 13.602H61.702Z" fill="white"/>
<path d="M70.2469 16.5081H69.046L67.8337 12.2305H67.7421L66.5348 16.5081H65.3454L63.7285 10.7002H64.9027L65.9535 15.1319H66.04L67.246 10.7002H68.3565L69.5625 15.1319H69.6541L70.6998 10.7002H71.8574L70.2469 16.5081Z" fill="white"/>
<path d="M73.2173 10.6991H74.3317V11.6218H74.4182C74.5649 11.2904 74.8124 11.0126 75.1262 10.8271C75.44 10.6416 75.8044 10.5577 76.1686 10.587C76.454 10.5658 76.7406 10.6084 77.0072 10.7117C77.2737 10.815 77.5133 10.9764 77.7083 11.1838C77.9033 11.3913 78.0486 11.6395 78.1336 11.9101C78.2185 12.1808 78.2408 12.4669 78.199 12.7472V16.507H77.0413V13.035C77.0413 12.1017 76.6317 11.6375 75.7755 11.6375C75.5818 11.6286 75.3883 11.6612 75.2085 11.7332C75.0286 11.8053 74.8666 11.9149 74.7336 12.0547C74.6006 12.1945 74.4996 12.3611 74.4377 12.5432C74.3758 12.7252 74.3544 12.9183 74.3749 13.1093V16.507H73.2173L73.2173 10.6991Z" fill="white"/>
<path d="M80.0435 8.43294H81.2011V16.5081H80.0435V8.43294Z" fill="white"/>
<path d="M82.8109 13.6021C82.7741 13.2204 82.8182 12.8353 82.9405 12.4714C83.0627 12.1076 83.2604 11.7731 83.5209 11.4894C83.7814 11.2056 84.0989 10.9789 84.4531 10.8238C84.8072 10.6686 85.1902 10.5885 85.5775 10.5885C85.9647 10.5885 86.3477 10.6686 86.7019 10.8238C87.056 10.9789 87.3735 11.2056 87.634 11.4894C87.8945 11.7731 88.0922 12.1076 88.2145 12.4714C88.3368 12.8353 88.3809 13.2204 88.344 13.6021C88.3816 13.9842 88.338 14.3698 88.216 14.7342C88.0941 15.0986 87.8964 15.4337 87.6359 15.718C87.3753 16.0023 87.0576 16.2295 86.7031 16.3849C86.3486 16.5404 85.9652 16.6207 85.5775 16.6207C85.1898 16.6207 84.8063 16.5404 84.4518 16.3849C84.0973 16.2295 83.7796 16.0023 83.5191 15.718C83.2585 15.4337 83.0609 15.0986 82.9389 14.7342C82.817 14.3698 82.7734 13.9842 82.8109 13.6021ZM87.1527 13.6021C87.1527 12.3432 86.5815 11.6069 85.5791 11.6069C84.5728 11.6069 84.0068 12.3432 84.0068 13.6021C84.0068 14.8711 84.5728 15.6017 85.5791 15.6017C86.5815 15.6017 87.1527 14.8661 87.1527 13.6021H87.1527Z" fill="white"/>
<path d="M89.5625 14.866C89.5625 13.8206 90.3487 13.2179 91.7442 13.1322L93.3331 13.0415V12.5402C93.3331 11.9268 92.9235 11.5804 92.1322 11.5804C91.486 11.5804 91.0382 11.8153 90.9097 12.226H89.7889C89.9072 11.2284 90.855 10.5885 92.1856 10.5885C93.6562 10.5885 94.4856 11.3134 94.4856 12.5402V16.5085H93.3713V15.6923H93.2797C93.0938 15.9851 92.8327 16.2238 92.5232 16.384C92.2136 16.5442 91.8667 16.6202 91.5178 16.6042C91.2715 16.6296 91.0226 16.6036 90.7872 16.5278C90.5517 16.4521 90.3349 16.3284 90.1506 16.1646C89.9664 16.0009 89.8189 15.8007 89.7176 15.577C89.6163 15.3534 89.5635 15.1112 89.5625 14.866ZM93.3331 14.3697V13.8842L91.9007 13.9749C91.0929 14.0284 90.7265 14.3005 90.7265 14.8125C90.7265 15.3352 91.1845 15.6394 91.8142 15.6394C91.9987 15.6579 92.1851 15.6394 92.3623 15.5852C92.5394 15.5309 92.7038 15.4418 92.8455 15.3234C92.9872 15.2049 93.1034 15.0595 93.1872 14.8956C93.2709 14.7318 93.3206 14.553 93.3331 14.3697Z" fill="white"/>
<path d="M96.0073 13.6016C96.0073 11.7664 96.9602 10.6038 98.4422 10.6038C98.8088 10.5871 99.1726 10.674 99.4911 10.8545C99.8097 11.0349 100.07 11.3014 100.241 11.6228H100.327V8.43294H101.485V16.5081H100.376V15.5905H100.284C100.1 15.9097 99.8306 16.1729 99.5059 16.3515C99.1812 16.5301 98.8134 16.6173 98.4422 16.6038C96.95 16.6039 96.0073 15.4412 96.0073 13.6016ZM97.2032 13.6016C97.2032 14.8335 97.7896 15.5748 98.7704 15.5748C99.7461 15.5748 100.349 14.8228 100.349 13.6067C100.349 12.3962 99.7398 11.6335 98.7704 11.6335C97.7959 11.6335 97.2031 12.3798 97.2031 13.6016H97.2032Z" fill="white"/>
<path d="M106.275 13.602C106.238 13.2203 106.282 12.8352 106.404 12.4714C106.527 12.1076 106.724 11.7731 106.985 11.4893C107.245 11.2056 107.563 10.9789 107.917 10.8238C108.271 10.6686 108.654 10.5885 109.041 10.5885C109.428 10.5885 109.811 10.6686 110.165 10.8238C110.52 10.9789 110.837 11.2056 111.097 11.4893C111.358 11.7731 111.556 12.1076 111.678 12.4714C111.8 12.8352 111.844 13.2203 111.807 13.602C111.845 13.9841 111.801 14.3697 111.679 14.7341C111.557 15.0985 111.36 15.4336 111.099 15.7179C110.839 16.0022 110.521 16.2294 110.167 16.3848C109.812 16.5403 109.429 16.6206 109.041 16.6206C108.653 16.6206 108.27 16.5403 107.915 16.3848C107.561 16.2294 107.243 16.0022 106.983 15.7179C106.722 15.4336 106.525 15.0985 106.403 14.7341C106.281 14.3697 106.237 13.9841 106.275 13.602ZM110.617 13.602C110.617 12.343 110.045 11.6068 109.043 11.6068C108.037 11.6068 107.471 12.343 107.471 13.602C107.471 14.871 108.037 15.6016 109.043 15.6016C110.045 15.6016 110.617 14.866 110.617 13.602Z" fill="white"/>
<path d="M113.36 10.6991H114.475V11.6218H114.561C114.708 11.2904 114.956 11.0126 115.269 10.8271C115.583 10.6416 115.947 10.5577 116.312 10.587C116.597 10.5658 116.884 10.6084 117.15 10.7117C117.417 10.815 117.656 10.9764 117.851 11.1838C118.046 11.3913 118.192 11.6395 118.277 11.9101C118.362 12.1808 118.384 12.4669 118.342 12.7472V16.507H117.184V13.035C117.184 12.1017 116.775 11.6375 115.919 11.6375C115.725 11.6286 115.531 11.6612 115.352 11.7332C115.172 11.8053 115.01 11.9149 114.877 12.0547C114.744 12.1945 114.643 12.3611 114.581 12.5432C114.519 12.7252 114.497 12.9183 114.518 13.1093V16.507H113.36V10.6991Z" fill="white"/>
<path d="M124.884 9.25351V10.726H126.154V11.6914H124.884V14.6779C124.884 15.2863 125.137 15.5527 125.713 15.5527C125.861 15.5522 126.008 15.5434 126.154 15.5262V16.481C125.947 16.5178 125.736 16.5374 125.525 16.5395C124.237 16.5395 123.725 16.0911 123.725 14.9713V11.6914H122.793V10.7259H123.725V9.25351H124.884Z" fill="white"/>
<path d="M127.735 8.43294H128.883V11.6335H128.974C129.128 11.2991 129.383 11.0197 129.703 10.8335C130.023 10.6473 130.393 10.5634 130.763 10.5931C131.047 10.5778 131.331 10.6248 131.594 10.7306C131.858 10.8364 132.094 10.9985 132.287 11.2053C132.48 11.4121 132.625 11.6585 132.71 11.927C132.796 12.1954 132.821 12.4793 132.783 12.7583V16.5081H131.624V13.0411C131.624 12.1134 131.188 11.6436 130.37 11.6436C130.171 11.6274 129.971 11.6545 129.784 11.7229C129.596 11.7914 129.426 11.8995 129.286 12.0397C129.145 12.18 129.037 12.349 128.969 12.5349C128.901 12.7208 128.875 12.9191 128.893 13.116V16.5081H127.735L127.735 8.43294Z" fill="white"/>
<path d="M139.533 14.9404C139.376 15.4712 139.035 15.9304 138.571 16.2376C138.106 16.5447 137.547 16.6804 136.991 16.6207C136.605 16.6308 136.221 16.5575 135.866 16.4059C135.511 16.2543 135.194 16.0281 134.936 15.7429C134.678 15.4576 134.486 15.1203 134.373 14.7542C134.26 14.3881 134.229 14.0021 134.282 13.6229C134.23 13.2426 134.262 12.8557 134.375 12.4886C134.487 12.1214 134.678 11.7825 134.935 11.4947C135.191 11.207 135.507 10.9772 135.861 10.8209C136.215 10.6645 136.599 10.5853 136.986 10.5886C138.619 10.5886 139.603 11.6927 139.603 13.5165V13.9164H135.461V13.9807C135.443 14.1938 135.47 14.4083 135.541 14.6105C135.611 14.8127 135.723 14.998 135.871 15.1547C136.018 15.3113 136.196 15.4358 136.395 15.5202C136.593 15.6045 136.807 15.6469 137.023 15.6445C137.3 15.6774 137.581 15.628 137.829 15.5027C138.078 15.3773 138.283 15.1816 138.419 14.9404L139.533 14.9404ZM135.461 13.0687H138.424C138.438 12.8738 138.412 12.678 138.345 12.4939C138.279 12.3098 138.174 12.1415 138.038 11.9998C137.902 11.8582 137.738 11.7462 137.556 11.6712C137.373 11.5961 137.177 11.5597 136.98 11.5642C136.78 11.5617 136.581 11.5989 136.396 11.6736C136.21 11.7484 136.042 11.8591 135.9 11.9993C135.759 12.1395 135.647 12.3064 135.571 12.4901C135.496 12.6737 135.459 12.8705 135.461 13.0687H135.461Z" fill="white"/>
<path d="M156.962 0.95907C159.758 0.95907 162.033 3.22001 162.033 5.999V42.0026C162.033 44.7816 159.758 47.0426 156.962 47.0426H6.03761C3.24163 47.0426 0.96687 44.7816 0.96687 42.0026V6.00093C0.96687 3.22194 3.24163 0.960996 6.03761 0.960996H156.962V0.95907ZM156.962 0H6.03761C2.71654 0 0 2.70003 0 6.00093V42.0026C0 45.3035 2.71654 48.0036 6.03761 48.0036H156.962C160.283 48.0036 163 45.3035 163 42.0026V6.00093C163 2.70003 160.283 0 156.962 0Z" fill="black"/>
</g>
<defs>
<clipPath id="clip0_1_14">
<rect width="163" height="48" rx="8" fill="white"/>
</clipPath>
</defs>
</svg>
