<svg width="164" height="48" viewBox="0 0 164 48" fill="none" xmlns="http://www.w3.org/2000/svg">
<g clip-path="url(#clip0_1_245)">
<path d="M157.926 48.0476H6.07408C2.67259 48.0476 0 45.2931 0 42.0595V6.13095C0 2.77762 2.79407 0.14286 6.07408 0.14286H157.926C161.327 0.14286 164 2.89738 164 6.13095V42.0595C164 45.2931 161.327 48.0476 157.926 48.0476Z" fill="black"/>
<path d="M57.5823 12.2405C57.5823 13.2005 57.3394 14.0405 56.732 14.6405C56.0031 15.3605 55.1527 15.7205 54.0594 15.7205C52.966 15.7205 52.1157 15.3605 51.3868 14.6405C50.6579 13.9205 50.2935 13.0805 50.2935 12.0005C50.2935 10.9205 50.6579 10.0805 51.3868 9.36052C52.1157 8.64052 52.966 8.28053 54.0594 8.28053C54.5453 8.28053 55.0312 8.40053 55.5172 8.64053C56.0031 8.88053 56.3675 9.12053 56.6105 9.48053L56.0031 10.0805C55.5172 9.48053 54.9097 9.24053 54.0594 9.24053C53.3305 9.24053 52.6016 9.48053 52.1157 10.0805C51.5083 10.5605 51.2653 11.2805 51.2653 12.1205C51.2653 12.9605 51.5083 13.6805 52.1157 14.1605C52.7231 14.6405 53.3305 15.0005 54.0594 15.0005C54.9097 15.0005 55.5172 14.7605 56.1246 14.1605C56.489 13.8005 56.732 13.3205 56.732 12.7205H54.0594V11.8805H57.5823C57.5823 11.8805 57.5823 12.1205 57.5823 12.2405Z" fill="white" stroke="white" stroke-width="0.148322" stroke-miterlimit="10"/>
<path d="M63.1703 9.24073H59.8903V11.5207H62.9273V12.3607H59.8903V14.6407H63.1703V15.6007H58.9185V8.40073H63.1703V9.24073Z" fill="white" stroke="white" stroke-width="0.148322" stroke-miterlimit="10"/>
<path d="M67.1791 15.6007H66.2073V9.24073H64.1421V8.40073H69.2443V9.24073H67.1791V15.6007Z" fill="white" stroke="white" stroke-width="0.148322" stroke-miterlimit="10"/>
<path d="M72.7671 15.6007V8.40073H73.7389V15.6007H72.7671Z" fill="white" stroke="white" stroke-width="0.148322" stroke-miterlimit="10"/>
<path d="M77.87 15.6007H76.8982V9.24073H74.833V8.40073H79.8137V9.24073H77.7486V15.6007H77.87Z" fill="white" stroke="white" stroke-width="0.148322" stroke-miterlimit="10"/>
<path d="M89.4102 14.6405C88.6813 15.3605 87.8309 15.7205 86.7376 15.7205C85.6443 15.7205 84.7939 15.3605 84.065 14.6405C83.3361 13.9205 82.9717 13.0805 82.9717 12.0005C82.9717 10.9205 83.3361 10.0805 84.065 9.36052C84.7939 8.64052 85.6443 8.28053 86.7376 8.28053C87.8309 8.28053 88.6813 8.64052 89.4102 9.36052C90.1391 10.0805 90.5035 10.9205 90.5035 12.0005C90.5035 13.0805 90.1391 13.9205 89.4102 14.6405ZM84.7939 14.0405C85.2798 14.5205 86.0087 14.8805 86.7376 14.8805C87.4665 14.8805 88.1954 14.6405 88.6813 14.0405C89.1672 13.5605 89.5317 12.8405 89.5317 12.0005C89.5317 11.1605 89.2887 10.4405 88.6813 9.96052C88.1954 9.48052 87.4665 9.12053 86.7376 9.12053C86.0087 9.12053 85.2798 9.36052 84.7939 9.96052C84.308 10.4405 83.9435 11.1605 83.9435 12.0005C83.9435 12.8405 84.1865 13.5605 84.7939 14.0405Z" fill="white" stroke="white" stroke-width="0.148322" stroke-miterlimit="10"/>
<path d="M91.8403 15.6007V8.40073H92.9337L96.4566 14.0407V12.6007V8.40073H97.4285V15.6007H96.4566L92.6907 9.72073V11.1607V15.6007H91.8403Z" fill="white" stroke="white" stroke-width="0.148322" stroke-miterlimit="10"/>
<path d="M82.7292 26.1602C79.8136 26.1602 77.5055 28.3202 77.5055 31.3202C77.5055 34.2002 79.8136 36.4802 82.7292 36.4802C85.6448 36.4802 87.9529 34.3202 87.9529 31.3202C87.9529 28.2002 85.6448 26.1602 82.7292 26.1602ZM82.7292 34.3202C81.1499 34.3202 79.8136 33.0002 79.8136 31.2002C79.8136 29.4002 81.1499 28.0802 82.7292 28.0802C84.3085 28.0802 85.6448 29.2802 85.6448 31.2002C85.6448 33.0002 84.3085 34.3202 82.7292 34.3202ZM71.4314 26.1602C68.5159 26.1602 66.2077 28.3202 66.2077 31.3202C66.2077 34.2002 68.5159 36.4802 71.4314 36.4802C74.347 36.4802 76.6551 34.3202 76.6551 31.3202C76.6551 28.2002 74.347 26.1602 71.4314 26.1602ZM71.4314 34.3202C69.8522 34.3202 68.5159 33.0002 68.5159 31.2002C68.5159 29.4002 69.8522 28.0802 71.4314 28.0802C73.0107 28.0802 74.347 29.2802 74.347 31.2002C74.347 33.0002 73.0107 34.3202 71.4314 34.3202ZM57.947 27.7202V29.8802H63.1707C63.0492 31.0802 62.5633 32.0402 61.9559 32.6402C61.227 33.3602 60.0122 34.2002 57.947 34.2002C54.667 34.2002 52.2373 31.6802 52.2373 28.4402C52.2373 25.2002 54.7885 22.6802 57.947 22.6802C59.6477 22.6802 60.984 23.4002 61.9559 24.2402L63.5351 22.6802C62.1988 21.4802 60.4981 20.5202 58.0685 20.5202C53.6951 20.5202 49.9292 24.1202 49.9292 28.4402C49.9292 32.7602 53.6951 36.3602 58.0685 36.3602C60.4981 36.3602 62.1988 35.6402 63.6566 34.0802C65.1144 32.6402 65.6003 30.6002 65.6003 29.0402C65.6003 28.5602 65.6003 28.0802 65.4788 27.7202H57.947ZM113.1 29.4002C112.614 28.2002 111.399 26.1602 108.726 26.1602C106.054 26.1602 103.867 28.2002 103.867 31.3202C103.867 34.2002 106.054 36.4802 108.969 36.4802C111.277 36.4802 112.735 35.0402 113.221 34.2002L111.52 33.0002C110.913 33.8402 110.184 34.4402 108.969 34.4402C107.754 34.4402 107.025 33.9602 106.418 32.8802L113.343 30.0002L113.1 29.4002ZM106.054 31.0802C106.054 29.1602 107.633 28.0802 108.726 28.0802C109.577 28.0802 110.427 28.5602 110.67 29.1602L106.054 31.0802ZM100.344 36.0002H102.652V21.0002H100.344V36.0002ZM96.6996 27.2402C96.0922 26.6402 95.1203 26.0402 93.9055 26.0402C91.3544 26.0402 88.9248 28.3202 88.9248 31.2002C88.9248 34.0802 91.2329 36.2402 93.9055 36.2402C95.1203 36.2402 96.0922 35.6402 96.5781 35.0402H96.6996V35.7602C96.6996 37.6802 95.6062 38.7602 93.9055 38.7602C92.5692 38.7602 91.5973 37.8002 91.3544 36.9602L89.4107 37.8002C90.0181 39.1202 91.4759 40.8002 94.027 40.8002C96.6996 40.8002 98.8862 39.2402 98.8862 35.5202V26.4002H96.6996V27.2402ZM94.027 34.3202C92.4477 34.3202 91.1114 33.0002 91.1114 31.2002C91.1114 29.4002 92.4477 28.0802 94.027 28.0802C95.6062 28.0802 96.821 29.4002 96.821 31.2002C96.821 33.0002 95.6062 34.3202 94.027 34.3202ZM123.668 21.0002H118.202V36.0002H120.51V30.3602H123.668C126.22 30.3602 128.649 28.5602 128.649 25.6802C128.649 22.8002 126.22 21.0002 123.668 21.0002ZM123.79 28.2002H120.51V23.0402H123.79C125.491 23.0402 126.463 24.4802 126.463 25.5602C126.341 26.8802 125.369 28.2002 123.79 28.2002ZM137.76 26.0402C136.06 26.0402 134.359 26.7602 133.751 28.3202L135.817 29.1602C136.303 28.3202 137.031 28.0802 137.882 28.0802C139.097 28.0802 140.19 28.8002 140.311 30.0002V30.1202C139.947 29.8802 138.975 29.5202 138.003 29.5202C135.817 29.5202 133.63 30.7202 133.63 32.8802C133.63 34.9202 135.452 36.2402 137.396 36.2402C138.975 36.2402 139.704 35.5202 140.311 34.8002H140.433V36.0002H142.62V30.2402C142.377 27.6002 140.311 26.0402 137.76 26.0402ZM137.517 34.3202C136.788 34.3202 135.695 33.9602 135.695 33.0002C135.695 31.8002 137.031 31.4402 138.125 31.4402C139.097 31.4402 139.583 31.6802 140.19 31.9202C139.947 33.3602 138.732 34.3202 137.517 34.3202ZM150.273 26.4002L147.722 32.8802H147.6L144.928 26.4002H142.498L146.507 35.5202L144.199 40.5602H146.507L152.703 26.4002H150.273ZM129.864 36.0002H132.172V21.0002H129.864V36.0002Z" fill="white"/>
<path d="M12.6338 8.99998C12.2693 9.35998 12.0264 9.95998 12.0264 10.68V37.2C12.0264 37.92 12.2693 38.52 12.6338 38.88L12.7553 39L27.819 24.12V24V23.88L12.6338 8.99998Z" fill="url(#paint0_linear_1_245)"/>
<path d="M32.8001 29.1611L27.8193 24.2411V24.0011V23.8811L32.8001 18.9611L32.9216 19.0811L38.8742 22.4411C40.5749 23.4011 40.5749 24.9611 38.8742 25.9211L32.8001 29.1611Z" fill="url(#paint1_linear_1_245)"/>
<path d="M32.9217 29.0403L27.8195 24.0003L12.6343 39.0003C13.2417 39.6003 14.0921 39.6003 15.1854 39.1203L32.9217 29.0403Z" fill="url(#paint2_linear_1_245)"/>
<path d="M32.9217 18.9608L15.1854 9.00076C14.0921 8.40076 13.2417 8.52076 12.6343 9.12076L27.8195 24.0008L32.9217 18.9608Z" fill="url(#paint3_linear_1_245)"/>
<path opacity="0.2" d="M32.8007 28.9197L15.1859 38.7597C14.214 39.3597 13.3637 39.2397 12.7562 38.7597L12.6348 38.8797L12.7562 38.9997C13.3637 39.4797 14.214 39.5997 15.1859 38.9997L32.8007 28.9197Z" fill="black"/>
<path opacity="0.12" d="M12.6349 38.7592C12.2704 38.3991 12.1489 37.799 12.1489 37.0789V37.1989C12.1489 37.919 12.3919 38.5191 12.7564 38.8792V38.7592H12.6349Z" fill="black"/>
<path opacity="0.12" d="M38.8744 25.5603L32.8003 28.9203L32.9218 29.0403L38.8744 25.6803C39.7247 25.2003 40.0892 24.6003 40.0892 24.0003C40.0892 24.6003 39.6033 25.0803 38.8744 25.5603Z" fill="black"/>
<path opacity="0.25" d="M15.186 9.11976L38.8749 22.4398C39.6037 22.9198 40.0897 23.3998 40.0897 23.9998C40.0897 23.3998 39.7252 22.7998 38.8749 22.3198L15.186 8.99976C13.4852 8.03976 12.1489 8.87976 12.1489 10.7998V10.9198C12.1489 8.99976 13.4852 8.15976 15.186 9.11976Z" fill="white"/>
<path d="M157.925 1.05582C160.738 1.05582 163.027 3.31662 163.027 6.09545V42.095C163.027 44.8739 160.738 47.1347 157.925 47.1347H6.07465C3.26151 47.1347 0.9728 44.8739 0.9728 42.095V6.09545C0.9728 3.31662 3.26151 1.05582 6.07465 1.05582H157.925ZM157.925 0.0948792H6.07465C2.7332 0.0948792 0 2.79475 0 6.09545V42.095C0 45.3957 2.7332 48.0956 6.07465 48.0956H157.925C161.267 48.0956 164 45.3957 164 42.095V6.09545C164 2.79475 161.267 0.0948792 157.925 0.0948792Z" fill="black"/>
</g>
<defs>
<linearGradient id="paint0_linear_1_245" x1="26.4823" y1="10.4516" x2="6.34494" y2="30.8376" gradientUnits="userSpaceOnUse">
<stop stop-color="#00A0FF"/>
<stop offset="0.00657445" stop-color="#00A1FF"/>
<stop offset="0.2601" stop-color="#00BEFF"/>
<stop offset="0.5122" stop-color="#00D2FF"/>
<stop offset="0.7604" stop-color="#00DFFF"/>
<stop offset="1" stop-color="#00E3FF"/>
</linearGradient>
<linearGradient id="paint1_linear_1_245" x1="41.1026" y1="24.0028" x2="11.7078" y2="24.0028" gradientUnits="userSpaceOnUse">
<stop stop-color="#FFE000"/>
<stop offset="0.4087" stop-color="#FFBD00"/>
<stop offset="0.7754" stop-color="#FFA500"/>
<stop offset="1" stop-color="#FF9C00"/>
</linearGradient>
<linearGradient id="paint2_linear_1_245" x1="30.1604" y1="26.7556" x2="2.85252" y2="54.4007" gradientUnits="userSpaceOnUse">
<stop stop-color="#FF3A44"/>
<stop offset="1" stop-color="#C31162"/>
</linearGradient>
<linearGradient id="paint3_linear_1_245" x1="8.86507" y1="0.212202" x2="21.0593" y2="12.5568" gradientUnits="userSpaceOnUse">
<stop stop-color="#32A071"/>
<stop offset="0.0685" stop-color="#2DA771"/>
<stop offset="0.4762" stop-color="#15CF74"/>
<stop offset="0.8009" stop-color="#06E775"/>
<stop offset="1" stop-color="#00F076"/>
</linearGradient>
<clipPath id="clip0_1_245">
<rect width="164" height="48" rx="8" fill="white"/>
</clipPath>
</defs>
</svg>
