<svg width="160" height="48" viewBox="0 0 160 48" fill="none" xmlns="http://www.w3.org/2000/svg">
<g clip-path="url(#clip0_1_414)">
<path d="M148.714 0H9.9968C9.6352 0 9.2736 0 8.9088 0C8.1132 0.0115686 7.31955 0.0821625 6.5344 0.2112C5.75433 0.343317 4.99897 0.593664 4.2944 0.9536C3.5857 1.31592 2.9379 1.78666 2.3744 2.3488C1.811 2.91123 1.34012 3.55924 0.9792 4.2688C0.614894 4.98339 0.362357 5.74963 0.2304 6.5408C0.0977768 7.32442 0.0271579 8.11728 0.0192 8.912C0 9.28 0 9.6384 0 10.0032V38C0 38.368 0 38.7264 0.0192 39.0944C0.0274355 39.8891 0.0980525 40.6819 0.2304 41.4656C0.361215 42.2456 0.610494 43.001 0.9696 43.7056C1.6955 45.1388 2.85584 46.3058 4.2848 47.04C4.98967 47.4006 5.7448 47.653 6.5248 47.7888C7.31003 47.9168 8.10368 47.9863 8.8992 47.9968C9.264 47.9968 9.6256 47.9968 9.9872 47.9968H149.987C150.349 47.9968 150.717 47.9968 151.078 47.9968C151.872 47.987 152.663 47.9175 153.446 47.7888C154.233 47.6525 154.996 47.4001 155.709 47.04C156.42 46.6815 157.068 46.2103 157.629 45.6448C158.195 45.0833 158.668 44.4352 159.03 43.7248C159.386 43.0193 159.633 42.2641 159.763 41.4848C159.896 40.701 159.969 39.9084 159.984 39.1136C159.984 38.7456 159.984 38.3872 159.984 38.0192C159.984 37.5904 159.984 37.1616 159.984 36.7392V11.296C159.984 10.8608 159.984 10.432 159.984 10.016C159.984 9.6512 159.984 9.2864 159.984 8.9248C159.97 8.13 159.896 7.33739 159.763 6.5536C159.632 5.7746 159.385 5.0196 159.03 4.3136C158.305 2.87622 157.147 1.70309 155.718 0.96C155.005 0.603757 154.243 0.35673 153.456 0.2272C152.673 0.0974609 151.882 0.0268613 151.088 0.016C150.726 0.016 150.358 0.016 149.997 0.016L148.714 0Z" fill="black"/>
<path d="M10.0025 46.9628C9.64093 46.9628 9.28893 46.9628 8.93053 46.9628C8.18869 46.9531 7.44856 46.889 6.71613 46.7708C6.03438 46.6549 5.37342 46.4393 4.75453 46.1308C3.52496 45.5006 2.52348 44.5013 1.89053 43.2732C1.57904 42.6544 1.36326 41.9919 1.25053 41.3084C1.12817 40.5742 1.06291 39.8318 1.05533 39.0876C1.05533 38.838 1.03613 38.006 1.03613 38.006V10.0027C1.03613 10.0027 1.03613 9.18355 1.05533 8.94355C1.06087 8.19832 1.12507 7.45469 1.24733 6.71955C1.3586 6.03362 1.57444 5.36881 1.88733 4.74835C2.19837 4.1378 2.60572 3.58134 3.09373 3.10035C3.58113 2.61244 4.14142 2.20329 4.75453 1.88755C5.37204 1.57841 6.03204 1.36272 6.71293 1.24755C7.44725 1.12679 8.18961 1.06153 8.93373 1.05235H10.0025H149.99H151.071C151.809 1.05866 152.545 1.12285 153.273 1.24435C153.961 1.35716 154.627 1.57291 155.251 1.88435C156.483 2.52005 157.484 3.52771 158.111 4.76435C158.422 5.3801 158.638 6.03928 158.751 6.71955C158.874 7.46021 158.943 8.20888 158.956 8.95955C158.956 9.29555 158.956 9.65715 158.956 10.0155C158.956 10.4603 158.956 10.8827 158.956 11.2955V36.7036C158.956 37.1356 158.956 37.5548 158.956 37.9836C158.956 38.4124 158.956 38.7228 158.956 39.0876C158.945 39.8233 158.877 40.5572 158.755 41.2828C158.645 41.9712 158.429 42.6383 158.115 43.2604C157.479 44.4839 156.479 45.4801 155.254 46.1116C154.632 46.4234 153.966 46.6392 153.279 46.7516C152.547 46.8704 151.807 46.9346 151.065 46.9436C150.719 46.9436 150.355 46.9436 150.003 46.9436H10.0025V46.9628Z" fill="black"/>
<path d="M59.3882 32.4034H53.7594L52.393 36.1602H49.9194L55.4234 22.125H57.7594L63.3882 36.1602H60.7994L59.3882 32.4034ZM54.4762 30.4834H58.6682L57.1674 26.4642C56.9626 25.9106 56.7578 25.2962 56.5594 24.6242C56.377 25.2194 56.1786 25.8242 55.9674 26.445L54.4762 30.4834Z" fill="white"/>
<path d="M64.3844 28.265C64.3844 27.4906 64.3588 26.6373 64.3076 25.705H66.5476C66.6318 26.1438 66.6895 26.5873 66.7204 27.033C67.1123 26.5633 67.6013 26.184 68.1536 25.921C68.706 25.6581 69.3087 25.5178 69.9204 25.5098C70.6377 25.4985 71.342 25.7013 71.9434 26.0923C72.5447 26.4834 73.0158 27.0449 73.2964 27.705C73.6901 28.6126 73.877 29.5963 73.8436 30.585C73.868 31.663 73.6492 32.7327 73.2036 33.7146C72.8308 34.5296 72.2222 35.214 71.4564 35.6794C70.6685 36.1347 69.7711 36.366 68.8612 36.3482C68.1453 36.3478 67.4345 36.2266 66.7588 35.9898V40.3194L64.3652 40.5242L64.3844 28.265ZM70.6756 33.5994C71.162 32.9594 71.4084 31.9994 71.4084 30.7194C71.4084 29.5525 71.2058 28.6992 70.8004 28.1594C70.6173 27.9086 70.376 27.7059 70.0973 27.5688C69.8187 27.4317 69.5109 27.3642 69.2004 27.3722C68.7532 27.3663 68.3122 27.4765 67.9204 27.6922C67.5043 27.928 67.1257 28.2246 66.7972 28.5722V34.1722C67.0624 34.2973 67.3418 34.3897 67.6292 34.4474C67.9384 34.5143 68.2537 34.5486 68.57 34.5498C68.9717 34.5739 69.3733 34.5 69.7401 34.3344C70.1069 34.1688 70.4279 33.9166 70.6756 33.5994Z" fill="white"/>
<path d="M75.2995 28.265C75.2995 27.4906 75.2739 26.6373 75.2227 25.705H77.4627C77.5495 26.1435 77.6082 26.5871 77.6386 27.033C78.5709 26.0176 79.6376 25.5098 80.8386 25.5098C81.5559 25.4985 82.2602 25.7013 82.8616 26.0923C83.4629 26.4834 83.934 27.0449 84.2146 27.705C84.6083 28.6126 84.7952 29.5963 84.7618 30.585C84.7912 31.6618 84.5779 32.7314 84.1378 33.7146C83.7642 34.53 83.1544 35.2145 82.3874 35.6794C81.5997 36.1352 80.7022 36.3665 79.7922 36.3482C79.0763 36.3478 78.3655 36.2266 77.6898 35.9898V40.3194L75.2963 40.5242L75.2995 28.265ZM81.6002 33.5994C82.0866 32.9445 82.3298 31.9845 82.3298 30.7194C82.3298 29.5525 82.1282 28.6992 81.725 28.1594C81.5419 27.9086 81.3006 27.7059 81.022 27.5688C80.7433 27.4317 80.4355 27.3642 80.125 27.3722C79.6779 27.3668 79.237 27.4771 78.845 27.6922C78.4289 27.928 78.0503 28.2246 77.7219 28.5722V34.1722C77.9874 34.2963 78.2667 34.3887 78.5538 34.4474C78.863 34.5143 79.1783 34.5486 79.4946 34.5498C79.8963 34.5733 80.2977 34.4992 80.6644 34.3336C81.0311 34.1681 81.3522 33.9162 81.6002 33.5994Z" fill="white"/>
<path d="M89.1624 35.4979C88.1397 34.9371 87.3092 34.082 86.7783 33.0435C86.1981 31.8701 85.9126 30.5729 85.9463 29.2643C85.9048 27.8642 86.2361 26.4783 86.9063 25.2483C87.5115 24.181 88.4204 23.3177 89.5175 22.7683C90.6706 22.205 91.94 21.921 93.2232 21.9395C94.0013 21.9361 94.777 22.0264 95.5336 22.2083C96.2411 22.3749 96.928 22.6196 97.5816 22.9379L96.9608 24.7779C95.8288 24.2069 94.5835 23.8964 93.3159 23.8691C92.4213 23.8542 91.5384 24.0749 90.7559 24.5091C90.0135 24.9353 89.4169 25.5754 89.044 26.3459C88.615 27.2598 88.4067 28.2616 88.4359 29.2707C88.42 30.1799 88.5786 31.0837 88.9032 31.9331C89.1978 32.685 89.7161 33.3283 90.3879 33.7763C91.1534 34.2553 92.0457 34.4917 92.948 34.4547C93.4155 34.4536 93.8821 34.414 94.3432 34.3363C94.7893 34.2654 95.2276 34.1518 95.652 33.9971V31.1427H92.4071V29.2835H97.9784V35.2003C97.1701 35.577 96.3236 35.8656 95.4536 36.0611C94.5908 36.2599 93.7085 36.3608 92.8232 36.3619C91.549 36.3925 90.2884 36.095 89.1624 35.4979Z" fill="white"/>
<path d="M106.479 36.1603C106.389 35.7033 106.333 35.2401 106.313 34.7747C105.913 35.2398 105.425 35.6205 104.876 35.8947C104.257 36.2084 103.57 36.3666 102.876 36.3555C102.308 36.3626 101.746 36.2412 101.231 36.0003C100.742 35.7708 100.333 35.3995 100.057 34.9347C99.7511 34.4078 99.5993 33.8059 99.6185 33.1971C99.6005 32.7353 99.6904 32.2757 99.8809 31.8547C100.071 31.4337 100.357 31.0628 100.716 30.7715C101.446 30.1656 102.663 29.8637 104.367 29.8659C105.002 29.8656 105.636 29.9105 106.265 30.0003V29.7955C106.265 28.8739 106.069 28.2232 105.676 27.8435C105.207 27.4397 104.598 27.2363 103.98 27.2771C103.427 27.2838 102.876 27.359 102.342 27.5011C101.812 27.6288 101.295 27.8067 100.799 28.0323L100.422 26.2915C100.964 26.0599 101.528 25.8809 102.105 25.7571C102.83 25.593 103.572 25.5114 104.316 25.5139C105.104 25.4923 105.888 25.6328 106.62 25.9267C107.264 26.2112 107.788 26.7114 108.102 27.3411C108.494 28.1841 108.678 29.1096 108.636 30.0387V34.1987C108.636 34.6253 108.662 35.2803 108.713 36.1635L106.479 36.1603ZM105.046 34.2403C105.507 34.0259 105.921 33.7225 106.265 33.3475V31.4275C105.734 31.3647 105.2 31.3294 104.665 31.3219C103.677 31.3219 102.993 31.4819 102.614 31.8019C102.428 31.9584 102.281 32.1549 102.183 32.3766C102.085 32.5984 102.038 32.8395 102.047 33.0819C102.03 33.2913 102.058 33.5019 102.129 33.6996C102.2 33.8972 102.313 34.0773 102.46 34.2275C102.772 34.4905 103.173 34.6245 103.58 34.6019C104.09 34.5942 104.591 34.4705 105.046 34.2403Z" fill="white"/>
<path d="M110.487 33.6506V21.2986L112.868 21.1066V33.225C112.834 33.5615 112.914 33.8995 113.095 34.185C113.186 34.2834 113.299 34.3596 113.424 34.4078C113.55 34.456 113.684 34.4751 113.818 34.4634C114.035 34.454 114.25 34.4175 114.458 34.3546L114.74 36.0698C114.472 36.171 114.194 36.2439 113.911 36.2874C113.605 36.3404 113.296 36.3683 112.986 36.3706C111.32 36.36 110.487 35.4533 110.487 33.6506Z" fill="white"/>
<path d="M116.442 33.6506V21.2986L118.826 21.1066V33.225C118.793 33.5615 118.873 33.8995 119.054 34.185C119.145 34.2834 119.258 34.3596 119.383 34.4078C119.508 34.456 119.643 34.4751 119.777 34.4634C119.994 34.454 120.209 34.4175 120.417 34.3546L120.695 36.0698C120.428 36.171 120.152 36.244 119.87 36.2874C119.563 36.3406 119.253 36.3684 118.942 36.3706C117.278 36.36 116.445 35.4533 116.442 33.6506Z" fill="white"/>
<path d="M130.487 31.2384H123.648C123.757 33.4294 124.8 34.5248 126.778 34.5248C127.285 34.5222 127.791 34.4621 128.285 34.3456C128.79 34.2282 129.283 34.0676 129.76 33.8656L130.285 35.504C129.053 36.0847 127.704 36.3758 126.343 36.3552C125.367 36.3834 124.4 36.1632 123.533 35.7152C122.782 35.3092 122.179 34.675 121.811 33.904C121.405 33.0109 121.208 32.0368 121.235 31.056C121.209 30.0283 121.418 29.0081 121.847 28.0736C122.212 27.2806 122.803 26.6128 123.546 26.1536C124.307 25.7053 125.178 25.4771 126.061 25.4944C126.938 25.4634 127.802 25.7061 128.535 26.1888C129.195 26.6473 129.707 27.2892 130.007 28.0352C130.336 28.8479 130.499 29.7184 130.487 30.5952V31.2384ZM128.154 29.7184C128.158 29.039 127.933 28.3781 127.514 27.8432C127.326 27.6329 127.094 27.4665 126.835 27.3559C126.575 27.2453 126.295 27.1932 126.013 27.2032C125.729 27.1974 125.448 27.2514 125.186 27.3616C124.925 27.4719 124.69 27.636 124.496 27.8432C124.045 28.3689 123.769 29.0221 123.706 29.712L128.154 29.7184Z" fill="white"/>
<path d="M132.298 28.3331C132.298 27.7603 132.269 26.8835 132.218 25.7091H134.458C134.496 26.0003 134.531 26.3491 134.57 26.7491C134.608 27.1491 134.627 27.4819 134.64 27.7347C134.881 27.3268 135.155 26.9394 135.459 26.5763C135.724 26.2659 136.042 26.0067 136.4 25.8115C136.776 25.6085 137.198 25.5059 137.626 25.5139C137.95 25.506 138.273 25.5459 138.586 25.6323L138.285 27.7059C137.91 27.5974 137.517 27.5698 137.131 27.625C136.744 27.6802 136.374 27.8168 136.045 28.0259C135.515 28.4195 135.054 28.8973 134.679 29.4403V36.1603H132.298V28.3331Z" fill="white"/>
<path d="M139.918 40.4382C139.626 40.391 139.338 40.3215 139.057 40.2302L139.492 38.4862C139.694 38.5404 139.898 38.5842 140.104 38.6174C140.334 38.6583 140.567 38.6797 140.801 38.6814C141.868 38.6814 142.661 37.9998 143.182 36.6366L143.339 36.2494L139.483 25.7086H142.043L144.001 31.5998C144.252 32.3576 144.455 33.1303 144.609 33.9134C144.792 33.1582 145.003 32.403 145.249 31.6478L147.201 25.7086H149.611L145.771 36.2974C145.481 37.1503 145.086 37.964 144.596 38.7198C144.223 39.2907 143.712 39.7593 143.112 40.083C142.468 40.3974 141.757 40.5511 141.041 40.531C140.665 40.5324 140.289 40.5014 139.918 40.4382Z" fill="white"/>
<path d="M49.9194 8.76211H54.1754L54.057 9.79251H51.161V11.7861H53.8906V12.7461H51.161V14.9541H54.2106L54.105 16.0005H49.9194V8.76211Z" fill="white"/>
<path d="M57.1173 12.3077L54.8773 8.76211H56.2981L57.8213 11.3669L59.4213 8.76211H60.8005L58.5605 12.2629L60.9829 16.0005H59.5429L57.8181 13.1525L56.0613 16.0005H54.6821L57.1173 12.3077Z" fill="white"/>
<path d="M61.9009 8.76211H63.8529C64.7681 8.76211 65.4699 8.94877 65.9585 9.32211C66.2015 9.51331 66.3947 9.76037 66.5217 10.0423C66.6488 10.3242 66.7058 10.6326 66.6881 10.9413C66.7016 11.3822 66.5907 11.8181 66.3681 12.1989C66.1508 12.5569 65.8339 12.8438 65.4561 13.0245C65.0363 13.223 64.5763 13.3215 64.1121 13.3125C63.7898 13.3079 63.4685 13.2748 63.1521 13.2133V16.0005H61.9009V8.76211ZM65.0369 11.9941C65.1734 11.863 65.2799 11.7038 65.3489 11.5276C65.418 11.3514 65.448 11.1623 65.4369 10.9733C65.4532 10.7922 65.4246 10.6099 65.3537 10.4425C65.2829 10.2751 65.1718 10.1277 65.0305 10.0133C64.6703 9.79398 64.2512 9.69116 63.8305 9.71891H63.1521V12.2789C63.3899 12.3217 63.6306 12.3464 63.8721 12.3525C64.2916 12.384 64.7076 12.256 65.0369 11.9941Z" fill="white"/>
<path d="M67.9243 8.76211H69.1723V14.9317H72.1675L72.0619 16.0005H67.9243V8.76211Z" fill="white"/>
<path d="M74.0675 15.6451C73.543 15.35 73.1194 14.904 72.8515 14.3651C72.5604 13.7678 72.4167 13.1094 72.4323 12.4451C72.417 11.7509 72.5707 11.0634 72.8803 10.4419C73.1641 9.88165 73.6101 9.41996 74.1603 9.1171C74.7762 8.79453 75.4655 8.63792 76.1603 8.6627C76.8173 8.64507 77.4673 8.80068 78.0451 9.1139C78.5664 9.41006 78.9867 9.856 79.2515 10.3939C79.5369 10.985 79.6783 11.6353 79.6643 12.2915C79.6816 12.9934 79.5267 13.6889 79.2131 14.3171C78.9266 14.8754 78.4812 15.3364 77.9331 15.6419C77.328 15.9638 76.6503 16.1247 75.9651 16.1091C75.3026 16.1259 74.6475 15.9657 74.0675 15.6451ZM77.3059 14.7587C77.6587 14.5249 77.933 14.1904 78.0931 13.7987C78.2727 13.3503 78.3608 12.8705 78.3523 12.3875C78.3603 11.9134 78.2823 11.4417 78.1219 10.9955C77.9783 10.609 77.7219 10.2745 77.3859 10.0355C76.9963 9.79707 76.5483 9.6709 76.0915 9.6709C75.6347 9.6709 75.1868 9.79707 74.7971 10.0355C74.4433 10.2809 74.1678 10.6231 74.0035 11.0211C73.8214 11.4511 73.731 11.9142 73.7379 12.3811C73.7302 12.8621 73.8149 13.3401 73.9875 13.7891C74.1408 14.1999 74.4211 14.5511 74.7877 14.7917C75.1543 15.0322 75.588 15.1496 76.0259 15.1267C76.4802 15.1379 76.9269 15.0094 77.3059 14.7587Z" fill="white"/>
<path d="M81.0562 8.76142H83.3218C83.9855 8.71443 84.6461 8.88887 85.2002 9.25742C85.4127 9.42431 85.5819 9.64003 85.6933 9.88626C85.8048 10.1325 85.8551 10.402 85.8402 10.6718C85.8477 11.0227 85.7685 11.37 85.6098 11.683C85.4709 11.9575 85.277 12.2004 85.0402 12.3966C84.8284 12.5676 84.5908 12.7037 84.3362 12.7998L86.5762 15.9998H85.1202L83.2354 13.1198H82.317V15.9998H81.0562V8.76142ZM83.0178 12.1854C83.2957 12.1915 83.571 12.1311 83.821 12.0094C84.046 11.9013 84.2358 11.7315 84.3682 11.5198C84.5002 11.2938 84.5677 11.0359 84.5634 10.7742C84.5763 10.6232 84.5514 10.4713 84.4911 10.3322C84.4308 10.1931 84.3368 10.0712 84.2178 9.97742C83.9177 9.7896 83.5661 9.70114 83.213 9.72462H82.3074V12.1982L83.0178 12.1854Z" fill="white"/>
<path d="M87.5532 8.76211H91.8188L91.6972 9.79251H88.8172V11.7861H91.5212V12.7461H88.7916V14.9541H91.8412L91.7484 16.0005H87.5532V8.76211Z" fill="white"/>
<path d="M96.457 8.76211H97.705V16.0005H96.457V8.76211Z" fill="white"/>
<path d="M101.011 9.80531H98.7705L98.8793 8.76211H104.511L104.396 9.80531H102.262V16.0005H101.011V9.80531Z" fill="white"/>
<path d="M109.936 15.645C109.413 15.3497 108.99 14.9037 108.723 14.365C108.43 13.7685 108.285 13.1097 108.301 12.445C108.286 11.7508 108.439 11.0633 108.749 10.4418C109.034 9.88212 109.479 9.42065 110.029 9.11699C110.64 8.79283 111.325 8.6319 112.016 8.64979C112.681 8.63189 113.338 8.79209 113.92 9.11379C114.442 9.409 114.863 9.8552 115.127 10.3938C115.413 10.9846 115.556 11.6349 115.543 12.2914C115.56 12.9937 115.404 13.6896 115.088 14.317C114.803 14.876 114.357 15.3372 113.808 15.6418C113.203 15.9645 112.526 16.1254 111.84 16.109C111.176 16.1269 110.518 15.9667 109.936 15.645ZM113.178 14.7586C113.529 14.5238 113.802 14.1895 113.962 13.7986C114.141 13.3502 114.23 12.8704 114.221 12.3874C114.229 11.9133 114.151 11.4416 113.991 10.9954C113.848 10.6091 113.593 10.2746 113.258 10.0354C112.868 9.79668 112.419 9.67036 111.962 9.67036C111.504 9.67036 111.056 9.79668 110.666 10.0354C110.312 10.2808 110.037 10.623 109.872 11.021C109.692 11.4514 109.601 11.9143 109.607 12.381C109.599 12.862 109.684 13.34 109.856 13.789C110.009 14.1837 110.275 14.5244 110.621 14.7682C111 15.0182 111.447 15.1436 111.901 15.1266C112.354 15.1359 112.799 15.0076 113.178 14.7586Z" fill="white"/>
<path d="M116.927 8.76211H118.361L121.942 14.3717C121.91 13.8373 121.897 13.3477 121.897 12.8965V8.76211H123.055V16.0005H121.666L118.031 10.3013C118.066 10.9413 118.086 11.5205 118.086 12.0229V16.0005H116.927V8.76211Z" fill="white"/>
<path fill-rule="evenodd" clip-rule="evenodd" d="M32.3197 8.79942H19.0365C12.7741 8.79942 10.4829 11.0906 10.4829 17.353V30.6458C10.4829 36.9082 12.7741 39.1994 19.0365 39.1994H32.3197C38.5821 39.1994 40.8765 36.9082 40.8765 30.6458V17.353C40.8829 11.0906 38.5917 8.79942 32.3197 8.79942Z" fill="#C8102E"/>
<path d="M16.5022 24H17.3086V27.9776H16.5022V26.3616H14.6814V27.9776H13.875V24H14.6814V25.6H16.5022V24ZM21.0462 26.2752C21.0462 26.9152 20.7262 27.2672 20.1438 27.2672C19.5614 27.2672 19.235 26.9152 19.235 26.24V24H18.4286V26.272C18.4286 27.3888 19.0494 28.0288 20.131 28.0288C21.2126 28.0288 21.8526 27.3888 21.8526 26.2368V24H21.0462V26.2752ZM30.3646 26.7328L29.4622 24H28.7998L27.9038 26.736L27.0238 24H26.1662L27.5518 27.9776H28.2206L29.1198 25.3664L30.0222 27.9776H30.6974L32.083 24H31.2446L30.3646 26.7328ZM33.5262 26.2624H34.995V25.5424H33.5262V24.7296H35.6574V24H32.7326V27.968H35.7342V27.2512H33.5262V26.2624ZM36.6942 27.968H37.491V24H36.6942V27.968ZM23.4462 27.1456L23.0846 27.9712H22.2622L23.9998 24H24.7102L26.4542 27.9712H25.6222L25.2798 27.1488L23.4462 27.1456ZM23.747 26.4288H24.9598L24.3518 25.008L23.747 26.4288Z" fill="white"/>
<path d="M25.6842 18.9412C24.3427 18.9404 23.0563 18.4071 22.1077 17.4585C21.1591 16.5099 20.6258 15.2236 20.625 13.882H21.3386C21.3386 15.0346 21.7964 16.1399 22.6114 16.9548C23.4264 17.7698 24.5317 18.2276 25.6842 18.2276C26.8367 18.2276 27.942 17.7698 28.757 16.9548C29.572 16.1399 30.0298 15.0346 30.0298 13.882H30.7434C30.7426 15.2236 30.2093 16.5099 29.2607 17.4585C28.3121 18.4071 27.0257 18.9404 25.6842 18.9412Z" fill="white"/>
</g>
<defs>
<clipPath id="clip0_1_414">
<rect width="160" height="48" fill="white"/>
</clipPath>
</defs>
</svg>
